{
  "accessors": [
    {
      "bufferView": 2,
      "componentType": 5126,
      "count": 39901,
      "max": [
        0.07640240341424942,
        0.2389708310365677,
        0.05216474086046219
      ],
      "min": [
        -0.07646860182285309,
        0.026631653308868408,
        -0.059276286512613297
      ],
      "type": "VEC3"
    },
    {
      "bufferView": 2,
      "byteOffset": 478812,
      "componentType": 5126,
      "count": 39901,
      "max": [
        0.9998801946640015,
        0.9999806880950928,
        0.9999833106994629
      ],
      "min": [
        -0.9999850988388062,
        -0.9999328851699829,
        -0.9999991655349731
      ],
      "type": "VEC3"
    },
    {
      "bufferView": 1,
      "componentType": 5126,
      "count": 39901,
      "max": [
        0.997802734375,
        0.9978866577148438
      ],
      "min": [
        0.0021890997886657715,
        0.6818870902061462
      ],
      "type": "VEC2"
    },
    {
      "bufferView": 1,
      "byteOffset": 319208,
      "componentType": 5126,
      "count": 39901,
      "max": [
        0.997802734375,
        0.9978866577148438
      ],
      "min": [
        0.0021890997886657715,
        0.6818870902061462
      ],
      "type": "VEC2"
    },
    {
      "bufferView": 1,
      "byteOffset": 638416,
      "componentType": 5126,
      "count": 39901,
      "max": [
        0.997802734375,
        0.9978866577148438
      ],
      "min": [
        0.0021890997886657715,
        0.6818870902061462
      ],
      "type": "VEC2"
    },
    {
      "bufferView": 1,
      "byteOffset": 957624,
      "componentType": 5126,
      "count": 39901,
      "max": [
        0.997802734375,
        0.9978866577148438
      ],
      "min": [
        0.0021890997886657715,
        0.6818870902061462
      ],
      "type": "VEC2"
    },
    {
      "bufferView": 1,
      "byteOffset": 1276832,
      "componentType": 5126,
      "count": 39901,
      "max": [
        0.997802734375,
        0.9978866577148438
      ],
      "min": [
        0.0021890997886657715,
        0.6818870902061462
      ],
      "type": "VEC2"
    },
    {
      "bufferView": 1,
      "byteOffset": 1596040,
      "componentType": 5126,
      "count": 39901,
      "max": [
        0.997802734375,
        0.9978866577148438
      ],
      "min": [
        0.0021890997886657715,
        0.6818870902061462
      ],
      "type": "VEC2"
    },
    {
      "bufferView": 1,
      "byteOffset": 1915248,
      "componentType": 5126,
      "count": 39901,
      "max": [
        0.997802734375,
        0.9978866577148438
      ],
      "min": [
        0.0021890997886657715,
        0.6818870902061462
      ],
      "type": "VEC2"
    },
    {
      "bufferView": 1,
      "byteOffset": 2234456,
      "componentType": 5126,
      "count": 39901,
      "max": [
        0.997802734375,
        0.9978866577148438
      ],
      "min": [
        0.0021890997886657715,
        0.6818870902061462
      ],
      "type": "VEC2"
    },
    {
      "bufferView": 1,
      "byteOffset": 2553664,
      "componentType": 5126,
      "count": 39901,
      "max": [
        0.997802734375,
        0.9978866577148438
      ],
      "min": [
        0.0021890997886657715,
        0.6818870902061462
      ],
      "type": "VEC2"
    },
    {
      "bufferView": 1,
      "byteOffset": 2872872,
      "componentType": 5126,
      "count": 39901,
      "max": [
        0.997802734375,
        0.9978866577148438
      ],
      "min": [
        0.0021890997886657715,
        0.6818870902061462
      ],
      "type": "VEC2"
    },
    {
      "bufferView": 0,
      "componentType": 5125,
      "count": 201417,
      "type": "SCALAR"
    }
  ],
  "asset": {
    "extras": {
      "author": "JFN (https://sketchfab.com/db4)",
      "license": "CC-BY-4.0 (http://creativecommons.org/licenses/by/4.0/)",
      "source": "https://sketchfab.com/3d-models/pink-bearbrick-scaniverse-lidar-a337ae3a2e87420696d00ae896f2c88e",
      "title": "Pink Bearbrick (Scaniverse LIDAR)"
    },
    "generator": "Sketchfab-15.8.0",
    "version": "2.0"
  },
  "bufferViews": [
    {
      "buffer": 0,
      "byteLength": 805668,
      "name": "floatBufferViews",
      "target": 34963
    },
    {
      "buffer": 0,
      "byteLength": 3192080,
      "byteOffset": 805668,
      "byteStride": 8,
      "name": "floatBufferViews",
      "target": 34962
    },
    {
      "buffer": 0,
      "byteLength": 957624,
      "byteOffset": 3997748,
      "byteStride": 12,
      "name": "floatBufferViews",
      "target": 34962
    }
  ],
  "buffers": [
    {
      "byteLength": 4955372,
      "uri": "scene.bin"
    }
  ],
  "extensionsUsed": [
    "KHR_materials_unlit"
  ],
  "images": [
    {
      "uri": "textures/main_baseColor.jpeg"
    }
  ],
  "materials": [
    {
      "doubleSided": true,
      "extensions": {
        "KHR_materials_unlit": {}
      },
      "name": "main",
      "pbrMetallicRoughness": {
        "baseColorTexture": {
          "index": 0
        },
        "metallicFactor": 0.0
      }
    }
  ],
  "meshes": [
    {
      "name": "mesh_main_0",
      "primitives": [
        {
          "attributes": {
            "NORMAL": 1,
            "POSITION": 0,
            "TEXCOORD_0": 2,
            "TEXCOORD_1": 3,
            "TEXCOORD_2": 4,
            "TEXCOORD_3": 5,
            "TEXCOORD_4": 6,
            "TEXCOORD_5": 7,
            "TEXCOORD_6": 8,
            "TEXCOORD_7": 9,
            "TEXCOORD_8": 10,
            "TEXCOORD_9": 11
          },
          "indices": 12,
          "material": 0,
          "mode": 4
        }
      ]
    }
  ],
  "nodes": [
    {
      "children": [
        1
      ],
      "matrix": [
        1.0,
        0.0,
        0.0,
        0.0,
        0.0,
        2.220446049250313e-16,
        -1.0,
        0.0,
        0.0,
        1.0,
        2.220446049250313e-16,
        0.0,
        0.0,
        0.0,
        0.0,
        1.0
      ],
      "name": "Sketchfab_model"
    },
    {
      "children": [
        2
      ],
      "matrix": [
        1.0,
        0.0,
        0.0,
        0.0,
        0.0,
        0.0,
        1.0,
        0.0,
        0.0,
        -1.0,
        0.0,
        0.0,
        0.0,
        0.0,
        0.0,
        1.0
      ],
      "name": "1ff1fafefa16405e904e42f2bb1709f8.fbx"
    },
    {
      "children": [
        3
      ],
      "name": "RootNode"
    },
    {
      "children": [
        4
      ],
      "name": "mesh"
    },
    {
      "mesh": 0,
      "name": "mesh_main_0"
    }
  ],
  "samplers": [
    {
      "magFilter": 9729,
      "minFilter": 9987,
      "wrapS": 10497,
      "wrapT": 10497
    }
  ],
  "scene": 0,
  "scenes": [
    {
      "name": "Sketchfab_Scene",
      "nodes": [
        0
      ]
    }
  ],
  "textures": [
    {
      "sampler": 0,
      "source": 0
    }
  ]
}
