{
  "accessors": [
    {
      "bufferView": 2,
      "componentType": 5126,
      "count": 65532,
      "max": [
        1.313413381576538,
        1.757083773612976,
        0.4709661602973938
      ],
      "min": [
        -1.313413381576538,
        0.13264334201812744,
        -0.5157263278961182
      ],
      "type": "VEC3"
    },
    {
      "bufferView": 2,
      "byteOffset": 786384,
      "componentType": 5126,
      "count": 65532,
      "max": [
        0.9999966025352478,
        0.9999998807907104,
        0.9999997019767761
      ],
      "min": [
        -0.9999144077301025,
        -0.9999993443489075,
        -0.9999764561653137
      ],
      "type": "VEC3"
    },
    {
      "bufferView": 1,
      "componentType": 5126,
      "count": 65532,
      "max": [
        0.9977874755859375,
        0.9569921493530273
      ],
      "min": [
        0.0020776130259037018,
        0.0366857647895813
      ],
      "type": "VEC2"
    },
    {
      "bufferView": 1,
      "byteOffset": 524256,
      "componentType": 5126,
      "count": 65532,
      "max": [
        0.9977874755859375,
        0.9569921493530273
      ],
      "min": [
        0.0020776130259037018,
        0.0366857647895813
      ],
      "type": "VEC2"
    },
    {
      "bufferView": 1,
      "byteOffset": 1048512,
      "componentType": 5126,
      "count": 65532,
      "max": [
        0.9977874755859375,
        0.9569921493530273
      ],
      "min": [
        0.0020776130259037018,
        0.0366857647895813
      ],
      "type": "VEC2"
    },
    {
      "bufferView": 1,
      "byteOffset": 1572768,
      "componentType": 5126,
      "count": 65532,
      "max": [
        0.9977874755859375,
        0.9569921493530273
      ],
      "min": [
        0.0020776130259037018,
        0.0366857647895813
      ],
      "type": "VEC2"
    },
    {
      "bufferView": 1,
      "byteOffset": 2097024,
      "componentType": 5126,
      "count": 65532,
      "max": [
        0.9977874755859375,
        0.9569921493530273
      ],
      "min": [
        0.0020776130259037018,
        0.0366857647895813
      ],
      "type": "VEC2"
    },
    {
      "bufferView": 1,
      "byteOffset": 2621280,
      "componentType": 5126,
      "count": 65532,
      "max": [
        0.9977874755859375,
        0.9569921493530273
      ],
      "min": [
        0.0020776130259037018,
        0.0366857647895813
      ],
      "type": "VEC2"
    },
    {
      "bufferView": 1,
      "byteOffset": 3145536,
      "componentType": 5126,
      "count": 65532,
      "max": [
        0.9977874755859375,
        0.9569921493530273
      ],
      "min": [
        0.0020776130259037018,
        0.0366857647895813
      ],
      "type": "VEC2"
    },
    {
      "bufferView": 1,
      "byteOffset": 3669792,
      "componentType": 5126,
      "count": 65532,
      "max": [
        0.9977874755859375,
        0.9569921493530273
      ],
      "min": [
        0.0020776130259037018,
        0.0366857647895813
      ],
      "type": "VEC2"
    },
    {
      "bufferView": 1,
      "byteOffset": 4194048,
      "componentType": 5126,
      "count": 65532,
      "max": [
        0.9977874755859375,
        0.9569921493530273
      ],
      "min": [
        0.0020776130259037018,
        0.0366857647895813
      ],
      "type": "VEC2"
    },
    {
      "bufferView": 1,
      "byteOffset": 4718304,
      "componentType": 5126,
      "count": 65532,
      "max": [
        0.9977874755859375,
        0.9569921493530273
      ],
      "min": [
        0.0020776130259037018,
        0.0366857647895813
      ],
      "type": "VEC2"
    },
    {
      "bufferView": 0,
      "componentType": 5125,
      "count": 197913,
      "type": "SCALAR"
    },
    {
      "bufferView": 2,
      "byteOffset": 1572768,
      "componentType": 5126,
      "count": 65532,
      "max": [
        1.313413381576538,
        1.757083773612976,
        0.4709661602973938
      ],
      "min": [
        -1.313413381576538,
        0.13264334201812744,
        -0.5157263278961182
      ],
      "type": "VEC3"
    },
    {
      "bufferView": 2,
      "byteOffset": 2359152,
      "componentType": 5126,
      "count": 65532,
      "max": [
        0.9999719262123108,
        0.9999977350234985,
        0.9999982118606567
      ],
      "min": [
        -1.0,
        -0.9991660714149475,
        -0.9999833106994629
      ],
      "type": "VEC3"
    },
    {
      "bufferView": 1,
      "byteOffset": 5242560,
      "componentType": 5126,
      "count": 65532,
      "max": [
        0.9977232813835144,
        0.9958347678184509
      ],
      "min": [
        0.002076253294944763,
        0.40429872274398804
      ],
      "type": "VEC2"
    },
    {
      "bufferView": 1,
      "byteOffset": 5766816,
      "componentType": 5126,
      "count": 65532,
      "max": [
        0.9977232813835144,
        0.9958347678184509
      ],
      "min": [
        0.002076253294944763,
        0.40429872274398804
      ],
      "type": "VEC2"
    },
    {
      "bufferView": 1,
      "byteOffset": 6291072,
      "componentType": 5126,
      "count": 65532,
      "max": [
        0.9977232813835144,
        0.9958347678184509
      ],
      "min": [
        0.002076253294944763,
        0.40429872274398804
      ],
      "type": "VEC2"
    },
    {
      "bufferView": 1,
      "byteOffset": 6815328,
      "componentType": 5126,
      "count": 65532,
      "max": [
        0.9977232813835144,
        0.9958347678184509
      ],
      "min": [
        0.002076253294944763,
        0.40429872274398804
      ],
      "type": "VEC2"
    },
    {
      "bufferView": 1,
      "byteOffset": 7339584,
      "componentType": 5126,
      "count": 65532,
      "max": [
        0.9977232813835144,
        0.9958347678184509
      ],
      "min": [
        0.002076253294944763,
        0.40429872274398804
      ],
      "type": "VEC2"
    },
    {
      "bufferView": 1,
      "byteOffset": 7863840,
      "componentType": 5126,
      "count": 65532,
      "max": [
        0.9977232813835144,
        0.9958347678184509
      ],
      "min": [
        0.002076253294944763,
        0.40429872274398804
      ],
      "type": "VEC2"
    },
    {
      "bufferView": 1,
      "byteOffset": 8388096,
      "componentType": 5126,
      "count": 65532,
      "max": [
        0.9977232813835144,
        0.9958347678184509
      ],
      "min": [
        0.002076253294944763,
        0.40429872274398804
      ],
      "type": "VEC2"
    },
    {
      "bufferView": 1,
      "byteOffset": 8912352,
      "componentType": 5126,
      "count": 65532,
      "max": [
        0.9977232813835144,
        0.9958347678184509
      ],
      "min": [
        0.002076253294944763,
        0.40429872274398804
      ],
      "type": "VEC2"
    },
    {
      "bufferView": 1,
      "byteOffset": 9436608,
      "componentType": 5126,
      "count": 65532,
      "max": [
        0.9977232813835144,
        0.9958347678184509
      ],
      "min": [
        0.002076253294944763,
        0.40429872274398804
      ],
      "type": "VEC2"
    },
    {
      "bufferView": 1,
      "byteOffset": 9960864,
      "componentType": 5126,
      "count": 65532,
      "max": [
        0.9977232813835144,
        0.9958347678184509
      ],
      "min": [
        0.002076253294944763,
        0.40429872274398804
      ],
      "type": "VEC2"
    },
    {
      "bufferView": 0,
      "byteOffset": 791652,
      "componentType": 5125,
      "count": 258678,
      "type": "SCALAR"
    },
    {
      "bufferView": 2,
      "byteOffset": 3145536,
      "componentType": 5126,
      "count": 5532,
      "max": [
        1.1824870109558105,
        1.757083773612976,
        0.41336166858673096
      ],
      "min": [
        -1.290988564491272,
        0.13264334201812744,
        -0.51418137550354
      ],
      "type": "VEC3"
    },
    {
      "bufferView": 2,
      "byteOffset": 3211920,
      "componentType": 5126,
      "count": 5532,
      "max": [
        0.9999886155128479,
        0.999658465385437,
        0.9999956488609314
      ],
      "min": [
        -0.9999604225158691,
        -0.9999765753746033,
        -0.9997254014015198
      ],
      "type": "VEC3"
    },
    {
      "bufferView": 1,
      "byteOffset": 10485120,
      "componentType": 5126,
      "count": 5532,
      "max": [
        0.997286319732666,
        0.9616724252700806
      ],
      "min": [
        0.0021239817142486572,
        0.36879146099090576
      ],
      "type": "VEC2"
    },
    {
      "bufferView": 1,
      "byteOffset": 10529376,
      "componentType": 5126,
      "count": 5532,
      "max": [
        0.997286319732666,
        0.9616724252700806
      ],
      "min": [
        0.0021239817142486572,
        0.36879146099090576
      ],
      "type": "VEC2"
    },
    {
      "bufferView": 1,
      "byteOffset": 10573632,
      "componentType": 5126,
      "count": 5532,
      "max": [
        0.997286319732666,
        0.9616724252700806
      ],
      "min": [
        0.0021239817142486572,
        0.36879146099090576
      ],
      "type": "VEC2"
    },
    {
      "bufferView": 1,
      "byteOffset": 10617888,
      "componentType": 5126,
      "count": 5532,
      "max": [
        0.997286319732666,
        0.9616724252700806
      ],
      "min": [
        0.0021239817142486572,
        0.36879146099090576
      ],
      "type": "VEC2"
    },
    {
      "bufferView": 1,
      "byteOffset": 10662144,
      "componentType": 5126,
      "count": 5532,
      "max": [
        0.997286319732666,
        0.9616724252700806
      ],
      "min": [
        0.0021239817142486572,
        0.36879146099090576
      ],
      "type": "VEC2"
    },
    {
      "bufferView": 1,
      "byteOffset": 10706400,
      "componentType": 5126,
      "count": 5532,
      "max": [
        0.997286319732666,
        0.9616724252700806
      ],
      "min": [
        0.0021239817142486572,
        0.36879146099090576
      ],
      "type": "VEC2"
    },
    {
      "bufferView": 1,
      "byteOffset": 10750656,
      "componentType": 5126,
      "count": 5532,
      "max": [
        0.997286319732666,
        0.9616724252700806
      ],
      "min": [
        0.0021239817142486572,
        0.36879146099090576
      ],
      "type": "VEC2"
    },
    {
      "bufferView": 1,
      "byteOffset": 10794912,
      "componentType": 5126,
      "count": 5532,
      "max": [
        0.997286319732666,
        0.9616724252700806
      ],
      "min": [
        0.0021239817142486572,
        0.36879146099090576
      ],
      "type": "VEC2"
    },
    {
      "bufferView": 1,
      "byteOffset": 10839168,
      "componentType": 5126,
      "count": 5532,
      "max": [
        0.997286319732666,
        0.9616724252700806
      ],
      "min": [
        0.0021239817142486572,
        0.36879146099090576
      ],
      "type": "VEC2"
    },
    {
      "bufferView": 1,
      "byteOffset": 10883424,
      "componentType": 5126,
      "count": 5532,
      "max": [
        0.997286319732666,
        0.9616724252700806
      ],
      "min": [
        0.0021239817142486572,
        0.36879146099090576
      ],
      "type": "VEC2"
    },
    {
      "bufferView": 0,
      "byteOffset": 1826364,
      "componentType": 5125,
      "count": 18564,
      "type": "SCALAR"
    }
  ],
  "asset": {
    "extras": {
      "author": "JFN (https://sketchfab.com/db4)",
      "license": "CC-BY-4.0 (http://creativecommons.org/licenses/by/4.0/)",
      "source": "https://sketchfab.com/3d-models/street-brooms-scaniverse-lidar-1e19d8bcaacd499586131141be6d1afc",
      "title": "Street Brooms (Scaniverse LIDAR)"
    },
    "generator": "Sketchfab-14.22.0",
    "version": "2.0"
  },
  "bufferViews": [
    {
      "buffer": 0,
      "byteLength": 1900620,
      "name": "floatBufferViews",
      "target": 34963
    },
    {
      "buffer": 0,
      "byteLength": 10927680,
      "byteOffset": 1900620,
      "byteStride": 8,
      "name": "floatBufferViews",
      "target": 34962
    },
    {
      "buffer": 0,
      "byteLength": 3278304,
      "byteOffset": 12828300,
      "byteStride": 12,
      "name": "floatBufferViews",
      "target": 34962
    }
  ],
  "buffers": [
    {
      "byteLength": 16106604,
      "uri": "scene.bin"
    }
  ],
  "extensionsUsed": [
    "KHR_materials_unlit"
  ],
  "images": [
    {
      "uri": "textures/main_baseColor.jpeg"
    }
  ],
  "materials": [
    {
      "doubleSided": true,
      "extensions": {
        "KHR_materials_unlit": {}
      },
      "name": "main",
      "pbrMetallicRoughness": {
        "baseColorTexture": {
          "index": 0
        },
        "metallicFactor": 0.0
      }
    }
  ],
  "meshes": [
    {
      "name": "mesh_main_0",
      "primitives": [
        {
          "attributes": {
            "NORMAL": 1,
            "POSITION": 0,
            "TEXCOORD_0": 2,
            "TEXCOORD_1": 3,
            "TEXCOORD_2": 4,
            "TEXCOORD_3": 5,
            "TEXCOORD_4": 6,
            "TEXCOORD_5": 7,
            "TEXCOORD_6": 8,
            "TEXCOORD_7": 9,
            "TEXCOORD_8": 10,
            "TEXCOORD_9": 11
          },
          "indices": 12,
          "material": 0,
          "mode": 4
        }
      ]
    },
    {
      "name": "mesh_main_0",
      "primitives": [
        {
          "attributes": {
            "NORMAL": 14,
            "POSITION": 13,
            "TEXCOORD_0": 15,
            "TEXCOORD_1": 16,
            "TEXCOORD_2": 17,
            "TEXCOORD_3": 18,
            "TEXCOORD_4": 19,
            "TEXCOORD_5": 20,
            "TEXCOORD_6": 21,
            "TEXCOORD_7": 22,
            "TEXCOORD_8": 23,
            "TEXCOORD_9": 24
          },
          "indices": 25,
          "material": 0,
          "mode": 4
        }
      ]
    },
    {
      "name": "mesh_main_0",
      "primitives": [
        {
          "attributes": {
            "NORMAL": 27,
            "POSITION": 26,
            "TEXCOORD_0": 28,
            "TEXCOORD_1": 29,
            "TEXCOORD_2": 30,
            "TEXCOORD_3": 31,
            "TEXCOORD_4": 32,
            "TEXCOORD_5": 33,
            "TEXCOORD_6": 34,
            "TEXCOORD_7": 35,
            "TEXCOORD_8": 36,
            "TEXCOORD_9": 37
          },
          "indices": 38,
          "material": 0,
          "mode": 4
        }
      ]
    }
  ],
  "nodes": [
    {
      "children": [
        1
      ],
      "matrix": [
        1.0,
        0.0,
        0.0,
        0.0,
        0.0,
        2.220446049250313e-16,
        -1.0,
        0.0,
        0.0,
        1.0,
        2.220446049250313e-16,
        0.0,
        0.0,
        0.0,
        0.0,
        1.0
      ],
      "name": "Sketchfab_model"
    },
    {
      "children": [
        2
      ],
      "matrix": [
        1.0,
        0.0,
        0.0,
        0.0,
        0.0,
        0.0,
        1.0,
        0.0,
        0.0,
        -1.0,
        0.0,
        0.0,
        0.0,
        0.0,
        0.0,
        1.0
      ],
      "name": "f399af6d5bf44966b3d2ca8a0e64d6e9.fbx"
    },
    {
      "children": [
        3
      ],
      "name": "RootNode"
    },
    {
      "children": [
        4,
        5,
        6
      ],
      "name": "mesh"
    },
    {
      "mesh": 0,
      "name": "mesh_main_0"
    },
    {
      "mesh": 1,
      "name": "mesh_main_0"
    },
    {
      "mesh": 2,
      "name": "mesh_main_0"
    }
  ],
  "samplers": [
    {
      "magFilter": 9729,
      "minFilter": 9987,
      "wrapS": 10497,
      "wrapT": 10497
    }
  ],
  "scene": 0,
  "scenes": [
    {
      "name": "Sketchfab_Scene",
      "nodes": [
        0
      ]
    }
  ],
  "textures": [
    {
      "sampler": 0,
      "source": 0
    }
  ]
}
