{
  "accessors": [
    {
      "bufferView": 2,
      "componentType": 5126,
      "count": 65532,
      "max": [
        0.6713380217552185,
        2.0673227310180664,
        1.20228910446167
      ],
      "min": [
        -0.6277434229850769,
        0.01616072654724121,
        -1.2024590969085693
      ],
      "type": "VEC3"
    },
    {
      "bufferView": 2,
      "byteOffset": 786384,
      "componentType": 5126,
      "count": 65532,
      "max": [
        0.9999452829360962,
        0.9999873638153076,
        0.9999990463256836
      ],
      "min": [
        -0.9999815225601196,
        -0.9999821186065674,
        -0.9999446868896484
      ],
      "type": "VEC3"
    },
    {
      "bufferView": 1,
      "componentType": 5126,
      "count": 65532,
      "max": [
        0.9977940320968628,
        0.9639919996261597
      ],
      "min": [
        0.002079591155052185,
        0.42700880765914917
      ],
      "type": "VEC2"
    },
    {
      "bufferView": 0,
      "componentType": 5125,
      "count": 288495,
      "type": "SCALAR"
    },
    {
      "bufferView": 2,
      "byteOffset": 1572768,
      "componentType": 5126,
      "count": 65532,
      "max": [
        0.6713380217552185,
        2.0666542053222656,
        1.2168822288513184
      ],
      "min": [
        -0.6279630661010742,
        0.01616072654724121,
        -1.2013798952102661
      ],
      "type": "VEC3"
    },
    {
      "bufferView": 2,
      "byteOffset": 2359152,
      "componentType": 5126,
      "count": 65532,
      "max": [
        0.9999778270721436,
        0.9999953508377075,
        0.9999867677688599
      ],
      "min": [
        -0.9999769926071167,
        -0.9819344878196716,
        -0.9999998807907104
      ],
      "type": "VEC3"
    },
    {
      "bufferView": 1,
      "byteOffset": 524256,
      "componentType": 5126,
      "count": 65532,
      "max": [
        0.9974433183670044,
        0.997864842414856
      ],
      "min": [
        0.002123914659023285,
        0.5331910848617554
      ],
      "type": "VEC2"
    },
    {
      "bufferView": 0,
      "byteOffset": 1153980,
      "componentType": 5125,
      "count": 348816,
      "type": "SCALAR"
    },
    {
      "bufferView": 2,
      "byteOffset": 3145536,
      "componentType": 5126,
      "count": 65532,
      "max": [
        0.6713380217552185,
        2.074023962020874,
        1.2025887966156006
      ],
      "min": [
        -0.629530131816864,
        0.01616072468459606,
        -1.2038308382034302
      ],
      "type": "VEC3"
    },
    {
      "bufferView": 2,
      "byteOffset": 3931920,
      "componentType": 5126,
      "count": 65532,
      "max": [
        0.9999583959579468,
        0.9999725818634033,
        0.999962568283081
      ],
      "min": [
        -0.9999990463256836,
        -0.9890322685241699,
        -0.9999806880950928
      ],
      "type": "VEC3"
    },
    {
      "bufferView": 1,
      "byteOffset": 1048512,
      "componentType": 5126,
      "count": 65532,
      "max": [
        0.9945166110992432,
        0.9978721141815186
      ],
      "min": [
        0.002130957553163171,
        0.6396770477294922
      ],
      "type": "VEC2"
    },
    {
      "bufferView": 0,
      "byteOffset": 2549244,
      "componentType": 5125,
      "count": 350916,
      "type": "SCALAR"
    },
    {
      "bufferView": 2,
      "byteOffset": 4718304,
      "componentType": 5126,
      "count": 37961,
      "max": [
        0.6374281644821167,
        2.074023962020874,
        1.2172257900238037
      ],
      "min": [
        -0.6287580132484436,
        0.01616072654724121,
        -1.11080002784729
      ],
      "type": "VEC3"
    },
    {
      "bufferView": 2,
      "byteOffset": 5173836,
      "componentType": 5126,
      "count": 37961,
      "max": [
        0.9999415874481201,
        0.9999324083328247,
        0.9999972581863403
      ],
      "min": [
        -0.9999452829360962,
        -0.9987284541130066,
        -0.9999943971633911
      ],
      "type": "VEC3"
    },
    {
      "bufferView": 1,
      "byteOffset": 1572768,
      "componentType": 5126,
      "count": 37961,
      "max": [
        0.9919215440750122,
        0.8525741696357727
      ],
      "min": [
        0.06518247723579407,
        0.6116029024124146
      ],
      "type": "VEC2"
    },
    {
      "bufferView": 0,
      "byteOffset": 3952908,
      "componentType": 5125,
      "count": 202809,
      "type": "SCALAR"
    }
  ],
  "asset": {
    "extras": {
      "author": "JFN (https://sketchfab.com/db4)",
      "license": "CC-BY-4.0 (http://creativecommons.org/licenses/by/4.0/)",
      "source": "https://sketchfab.com/3d-models/mythical-lion-sculpture-scaniverse-lidar-1d49e56f54574a009c9bdd4890bb7b99",
      "title": "Mythical Lion Sculpture (Scaniverse LIDAR)"
    },
    "generator": "Sketchfab-14.21.0",
    "version": "2.0"
  },
  "bufferViews": [
    {
      "buffer": 0,
      "byteLength": 4764144,
      "name": "floatBufferViews",
      "target": 34963
    },
    {
      "buffer": 0,
      "byteLength": 1876456,
      "byteOffset": 4764144,
      "byteStride": 8,
      "name": "floatBufferViews",
      "target": 34962
    },
    {
      "buffer": 0,
      "byteLength": 5629368,
      "byteOffset": 6640600,
      "byteStride": 12,
      "name": "floatBufferViews",
      "target": 34962
    }
  ],
  "buffers": [
    {
      "byteLength": 12269968,
      "uri": "scene.bin"
    }
  ],
  "extensionsUsed": [
    "KHR_materials_unlit"
  ],
  "images": [
    {
      "uri": "textures/main_baseColor.jpeg"
    }
  ],
  "materials": [
    {
      "doubleSided": true,
      "extensions": {
        "KHR_materials_unlit": {}
      },
      "name": "main",
      "pbrMetallicRoughness": {
        "baseColorTexture": {
          "index": 0
        },
        "metallicFactor": 0.0
      }
    }
  ],
  "meshes": [
    {
      "name": "mesh_main_0",
      "primitives": [
        {
          "attributes": {
            "NORMAL": 1,
            "POSITION": 0,
            "TEXCOORD_0": 2
          },
          "indices": 3,
          "material": 0,
          "mode": 4
        }
      ]
    },
    {
      "name": "mesh_main_0",
      "primitives": [
        {
          "attributes": {
            "NORMAL": 5,
            "POSITION": 4,
            "TEXCOORD_0": 6
          },
          "indices": 7,
          "material": 0,
          "mode": 4
        }
      ]
    },
    {
      "name": "mesh_main_0",
      "primitives": [
        {
          "attributes": {
            "NORMAL": 9,
            "POSITION": 8,
            "TEXCOORD_0": 10
          },
          "indices": 11,
          "material": 0,
          "mode": 4
        }
      ]
    },
    {
      "name": "mesh_main_0",
      "primitives": [
        {
          "attributes": {
            "NORMAL": 13,
            "POSITION": 12,
            "TEXCOORD_0": 14
          },
          "indices": 15,
          "material": 0,
          "mode": 4
        }
      ]
    }
  ],
  "nodes": [
    {
      "children": [
        1
      ],
      "matrix": [
        1.0,
        0.0,
        0.0,
        0.0,
        0.0,
        2.220446049250313e-16,
        -1.0,
        0.0,
        0.0,
        1.0,
        2.220446049250313e-16,
        0.0,
        0.0,
        0.0,
        0.0,
        1.0
      ],
      "name": "Sketchfab_model"
    },
    {
      "children": [
        2
      ],
      "matrix": [
        0.009999999776482582,
        0.0,
        0.0,
        0.0,
        0.0,
        0.0,
        0.009999999776482582,
        0.0,
        0.0,
        -0.009999999776482582,
        0.0,
        0.0,
        0.0,
        0.0,
        0.0,
        1.0
      ],
      "name": "c12c340dff184a969e3063dbee0aebef.fbx"
    },
    {
      "children": [
        3
      ],
      "name": "RootNode"
    },
    {
      "children": [
        4,
        5,
        6,
        7
      ],
      "matrix": [
        100.0,
        0.0,
        0.0,
        0.0,
        0.0,
        99.99999999999866,
        1.6292067073209114e-05,
        0.0,
        0.0,
        -1.6292067073209114e-05,
        99.99999999999866,
        0.0,
        0.0,
        0.0,
        0.0,
        1.0
      ],
      "name": "mesh"
    },
    {
      "mesh": 0,
      "name": "mesh_main_0"
    },
    {
      "mesh": 1,
      "name": "mesh_main_0"
    },
    {
      "mesh": 2,
      "name": "mesh_main_0"
    },
    {
      "mesh": 3,
      "name": "mesh_main_0"
    }
  ],
  "samplers": [
    {
      "magFilter": 9729,
      "minFilter": 9987,
      "wrapS": 10497,
      "wrapT": 10497
    }
  ],
  "scene": 0,
  "scenes": [
    {
      "name": "Sketchfab_Scene",
      "nodes": [
        0
      ]
    }
  ],
  "textures": [
    {
      "sampler": 0,
      "source": 0
    }
  ]
}
