{
  "accessors": [
    {
      "bufferView": 2,
      "componentType": 5126,
      "count": 65532,
      "max": [
        3.522339105606079,
        5.3167595863342285,
        0.996203601360321
      ],
      "min": [
        -3.522339105606079,
        -0.030417442321777344,
        -0.996203601360321
      ],
      "type": "VEC3"
    },
    {
      "bufferView": 2,
      "byteOffset": 786384,
      "componentType": 5126,
      "count": 65532,
      "max": [
        0.9999854564666748,
        0.9999998807907104,
        1.0
      ],
      "min": [
        -0.9999499320983887,
        -0.9999998807907104,
        -0.9999915361404419
      ],
      "type": "VEC3"
    },
    {
      "bufferView": 1,
      "componentType": 5126,
      "count": 65532,
      "max": [
        0.9976918697357178,
        0.9979236125946045
      ],
      "min": [
        0.002073315205052495,
        0.14099979400634766
      ],
      "type": "VEC2"
    },
    {
      "bufferView": 0,
      "componentType": 5125,
      "count": 277740,
      "type": "SCALAR"
    },
    {
      "bufferView": 2,
      "byteOffset": 1572768,
      "componentType": 5126,
      "count": 32302,
      "max": [
        3.522339105606079,
        5.3167595863342285,
        0.996203601360321
      ],
      "min": [
        -3.522339105606079,
        -0.030417442321777344,
        -0.996203601360321
      ],
      "type": "VEC3"
    },
    {
      "bufferView": 2,
      "byteOffset": 1960392,
      "componentType": 5126,
      "count": 32302,
      "max": [
        0.9999493360519409,
        0.9999855756759644,
        0.999987006187439
      ],
      "min": [
        -0.9999583959579468,
        -0.999990701675415,
        -0.9997141361236572
      ],
      "type": "VEC3"
    },
    {
      "bufferView": 1,
      "byteOffset": 524256,
      "componentType": 5126,
      "count": 32302,
      "max": [
        0.9978103041648865,
        0.9445810317993164
      ],
      "min": [
        0.002068357774987817,
        0.19463121891021729
      ],
      "type": "VEC2"
    },
    {
      "bufferView": 0,
      "byteOffset": 1110960,
      "componentType": 5125,
      "count": 110634,
      "type": "SCALAR"
    }
  ],
  "asset": {
    "extras": {
      "author": "JFN (https://sketchfab.com/db4)",
      "license": "CC-BY-4.0 (http://creativecommons.org/licenses/by/4.0/)",
      "source": "https://sketchfab.com/3d-models/antique-turtle-car-vw-beetle-scaniverse-lidar-38fe0da61b904fa1a77e77144f55b66c",
      "title": "Antique Turtle Car VW Beetle (Scaniverse LIDAR)"
    },
    "generator": "Sketchfab-14.32.0",
    "version": "2.0"
  },
  "bufferViews": [
    {
      "buffer": 0,
      "byteLength": 1553496,
      "name": "floatBufferViews",
      "target": 34963
    },
    {
      "buffer": 0,
      "byteLength": 782672,
      "byteOffset": 1553496,
      "byteStride": 8,
      "name": "floatBufferViews",
      "target": 34962
    },
    {
      "buffer": 0,
      "byteLength": 2348016,
      "byteOffset": 2336168,
      "byteStride": 12,
      "name": "floatBufferViews",
      "target": 34962
    }
  ],
  "buffers": [
    {
      "byteLength": 4684184,
      "uri": "scene.bin"
    }
  ],
  "extensionsUsed": [
    "KHR_materials_unlit"
  ],
  "images": [
    {
      "uri": "textures/main_baseColor.jpeg"
    }
  ],
  "materials": [
    {
      "doubleSided": true,
      "extensions": {
        "KHR_materials_unlit": {}
      },
      "name": "main",
      "pbrMetallicRoughness": {
        "baseColorTexture": {
          "index": 0
        },
        "metallicFactor": 0.0
      }
    }
  ],
  "meshes": [
    {
      "name": "mesh_main_0",
      "primitives": [
        {
          "attributes": {
            "NORMAL": 1,
            "POSITION": 0,
            "TEXCOORD_0": 2
          },
          "indices": 3,
          "material": 0,
          "mode": 4
        }
      ]
    },
    {
      "name": "mesh_main_0",
      "primitives": [
        {
          "attributes": {
            "NORMAL": 5,
            "POSITION": 4,
            "TEXCOORD_0": 6
          },
          "indices": 7,
          "material": 0,
          "mode": 4
        }
      ]
    }
  ],
  "nodes": [
    {
      "children": [
        1
      ],
      "matrix": [
        1.0,
        0.0,
        0.0,
        0.0,
        0.0,
        2.220446049250313e-16,
        -1.0,
        0.0,
        0.0,
        1.0,
        2.220446049250313e-16,
        0.0,
        0.0,
        0.0,
        0.0,
        1.0
      ],
      "name": "Sketchfab_model"
    },
    {
      "children": [
        2
      ],
      "matrix": [
        0.009999999776482582,
        0.0,
        0.0,
        0.0,
        0.0,
        0.0,
        0.009999999776482582,
        0.0,
        0.0,
        -0.009999999776482582,
        0.0,
        0.0,
        0.0,
        0.0,
        0.0,
        1.0
      ],
      "name": "f109298bda6a4385b305bc98666e601d.fbx"
    },
    {
      "children": [
        3
      ],
      "name": "RootNode"
    },
    {
      "children": [
        4,
        5
      ],
      "matrix": [
        100.0,
        0.0,
        0.0,
        0.0,
        0.0,
        99.99999999999866,
        1.6292067073209114e-05,
        0.0,
        0.0,
        -1.6292067073209114e-05,
        99.99999999999866,
        0.0,
        0.0,
        0.0,
        0.0,
        1.0
      ],
      "name": "mesh"
    },
    {
      "mesh": 0,
      "name": "mesh_main_0"
    },
    {
      "mesh": 1,
      "name": "mesh_main_0"
    }
  ],
  "samplers": [
    {
      "magFilter": 9729,
      "minFilter": 9987,
      "wrapS": 10497,
      "wrapT": 10497
    }
  ],
  "scene": 0,
  "scenes": [
    {
      "name": "Sketchfab_Scene",
      "nodes": [
        0
      ]
    }
  ],
  "textures": [
    {
      "sampler": 0,
      "source": 0
    }
  ]
}
